<?xml version="1.0" encoding="UTF-8" standalone="no"?>
<svg
   xmlns:dc="http://purl.org/dc/elements/1.1/"
   xmlns:cc="http://creativecommons.org/ns#"
   xmlns:rdf="http://www.w3.org/1999/02/22-rdf-syntax-ns#"
   xmlns:svg="http://www.w3.org/2000/svg"
   xmlns="http://www.w3.org/2000/svg"
   xmlns:sodipodi="http://sodipodi.sourceforge.net/DTD/sodipodi-0.dtd"
   xmlns:inkscape="http://www.inkscape.org/namespaces/inkscape"
   version="1.1"
   id="svg2"
   width="2000"
   height="2137"
   viewBox="0 0 2000 2137"
   sodipodi:docname="Google_Play_Arrow_logo.svg"
   inkscape:version="1.0.1 (3bc2e813f5, 2020-09-07)">
  <metadata
     id="metadata8">
    <rdf:RDF>
      <cc:Work
         rdf:about="">
        <dc:format>image/svg+xml</dc:format>
        <dc:type
           rdf:resource="http://purl.org/dc/dcmitype/StillImage" />
        <dc:title></dc:title>
      </cc:Work>
    </rdf:RDF>
  </metadata>
  <defs
     id="defs6">
    <inkscape:path-effect
       effect="bspline"
       id="path-effect921"
       is_visible="true"
       lpeversion="1"
       weight="33.333333"
       steps="2"
       helper_size="0"
       apply_no_weight="true"
       apply_with_weight="true"
       only_selected="false" />
    <inkscape:path-effect
       effect="bspline"
       id="path-effect917"
       is_visible="true"
       lpeversion="1"
       weight="33.333333"
       steps="2"
       helper_size="0"
       apply_no_weight="true"
       apply_with_weight="true"
       only_selected="false" />
    <inkscape:path-effect
       effect="bspline"
       id="path-effect909"
       is_visible="true"
       lpeversion="1"
       weight="33.333333"
       steps="2"
       helper_size="0"
       apply_no_weight="true"
       apply_with_weight="true"
       only_selected="false" />
    <inkscape:path-effect
       effect="bspline"
       id="path-effect905"
       is_visible="true"
       lpeversion="1"
       weight="33.333333"
       steps="2"
       helper_size="0"
       apply_no_weight="true"
       apply_with_weight="true"
       only_selected="false" />
  </defs>
  <sodipodi:namedview
     pagecolor="#ffffff"
     bordercolor="#666666"
     borderopacity="1"
     objecttolerance="10"
     gridtolerance="10"
     guidetolerance="10"
     inkscape:pageopacity="0"
     inkscape:pageshadow="2"
     inkscape:window-width="1920"
     inkscape:window-height="1017"
     id="namedview4"
     showgrid="false"
     fit-margin-top="0"
     fit-margin-left="0"
     fit-margin-right="0"
     fit-margin-bottom="0"
     inkscape:zoom="0.24320238"
     inkscape:cx="1458.0977"
     inkscape:cy="1032.4284"
     inkscape:window-x="-8"
     inkscape:window-y="-8"
     inkscape:window-maximized="1"
     inkscape:current-layer="g10" />
  <g
     inkscape:groupmode="layer"
     inkscape:label="Image"
     id="g10"
     transform="translate(169.41602,-33.462902)">
    <path
       style="fill:none;stroke:#000000;stroke-width:1px;stroke-linecap:butt;stroke-linejoin:miter;stroke-opacity:1"
       d="m 211.30456,174.16292 c 262.31893,138.419 770.1593,414.6299 1074.64404,580.78093 304.4848,166.15103 405.6099,222.23995 460.8672,255.54005 55.2573,33.3 64.6447,43.8093 70.368,51.2599 5.7233,7.4506 7.7827,11.8421 9.1151,17.3087 1.3323,5.4667 1.9381,12.0084 2.2257,15.7487 0.2876,3.7404 0.2573,4.6792 -0.4697,8.1318 -0.727,3.4525 -2.1504,9.4188 -4.0585,14.8097 -1.908,5.3908 -4.3006,10.2062 -7.5866,15.37 -3.2861,5.1638 -7.4655,10.6758 -12.3567,16.0364 -4.8912,5.3606 -10.4941,10.5697 -14.295,13.9012 -3.8009,3.3315 -5.7997,4.7851 -13.0988,9.0404 -7.2991,4.2553 -19.8979,11.3118 -31.1493,17.5508 -11.2515,6.2391 -21.1549,11.6602 -37.752,20.6705 -16.5971,9.0103 -39.8868,21.6091 -142.9653,77.9146 -103.0786,56.3055 -285.9382,156.3134 -448.6425,245.2099 -162.70426,88.8965 -305.2439,166.6766 -492.33319,269.1302 -187.08929,102.4537 -418.71618,229.5744 -540.185609,294.8493 -121.469433,65.2749 -132.776673,68.7013 -145.197686,70.2433 -12.421013,1.5421 -25.955421,1.1994 -34.607284,4e-4 -8.651861,-1.199 -12.420961,-3.2549 -16.361471,-5.2252 -3.9405,-1.9703 -8.05221,-3.8548 -13.8775,-9.1657 -5.82529,-5.3109 -13.36345,-14.0483 -19.95974,-25.9555 -6.59628,-11.9071 -12.24992,-26.9835 -15.5053,-44.2019 -3.25538,-17.2185 -4.11199,-36.5778 -4.54032,-358.4182 -0.42834,-321.8404 -0.42834,-946.13653 -4e-5,-1264.03037 0.42831,-317.89384 1.28494,-329.37239 4.3688,-341.87945 3.08385,-12.50707 8.39482,-26.041477 14.30566,-36.663927 5.91085,-10.62245 12.42107,-18.331923 19.61695,-24.842449 7.19588,-6.510526 15.07668,-11.821499 22.44396,-15.419361 7.367269,-3.597863 14.220135,-5.4824 26.04566,-6.111314 11.825526,-0.628914 28.622536,-0.0024 290.94147,138.416591 z"
       id="path903"
       inkscape:original-d="M -34.21806,36.370385 C 473.6233,312.58227 981.46368,588.79315 1489.303,865.00304 c 101.1302,56.09218 202.2553,112.18112 303.3815,168.27016 9.3887,10.5107 18.776,21.02 28.1625,31.5284 2.0605,4.3926 4.1199,8.7841 6.1784,13.1746 0.6067,6.5429 1.2124,13.0846 1.8172,19.6255 -0.029,0.9399 -0.06,1.8787 -0.091,2.8166 -1.4225,5.9675 -2.8459,11.9338 -4.2704,17.8992 -2.3916,4.8166 -4.7842,9.632 -7.1778,14.4466 -4.1786,5.5132 -8.358,11.0252 -12.5385,16.5363 -5.6021,5.2103 -11.205,10.4194 -16.8089,15.6277 -1.998,1.4548 -3.9968,2.9085 -5.9967,4.3612 -12.5984,7.0579 -25.1972,14.1144 -37.7973,21.1701 -9.9028,5.4224 -19.8062,10.8435 -29.7108,16.2637 -23.2896,12.6004 -46.5793,25.1992 -69.8705,37.7973 -182.8659,100.0129 -365.7255,200.0208 -548.5898,300.0297 -142.54432,77.7841 -285.08392,155.5642 -427.62739,233.3447 -231.63513,127.1268 -463.26201,254.2475 -694.89451,381.3697 -11.30669,3.4275 -22.61391,6.854 -33.92237,10.2795 -13.533952,-0.3417 -27.068362,-0.6843 -40.60404,-1.028 -3.76823,-2.0549 -7.53731,-4.1108 -11.30746,-6.1677 -4.11088,-1.8836 -8.2226,-3.7681 -12.3354,-5.6537 -7.53746,-8.7368 -15.07561,-17.4742 -22.61491,-26.2127 -5.65285,-15.0759 -11.30646,-30.1523 -16.96119,-45.2299 -0.85564,-19.3591 -1.71225,-38.7184 -2.56987,-58.0792 0.001,-624.32 0.001,-1248.61613 0,-1872.92572 0.85774,-11.47801 1.71435,-22.95656 2.56997,-34.43634 5.31219,-13.53395 10.62316,-27.068361 15.93323,-40.604042 6.51149,-7.708783 13.02171,-15.418257 19.53106,-23.128886 7.88211,-5.310183 15.76291,-10.621154 23.64286,-15.933232 6.854145,-1.883613 13.707011,-3.768152 20.559014,-5.653727 16.798686,0.627523 33.595696,1.254021 50.392046,1.879532 z"
       inkscape:path-effect="#path-effect905" />
    <path
       style="fill:#000000;stroke:#000000;stroke-width:1px;stroke-linecap:butt;stroke-linejoin:miter;stroke-opacity:1;fill-opacity:0"
       d="m 973.66488,1099.4475 c 0,0 330.48612,-333.56989 330.48612,-333.56989 148.0249,81.8934 296.0509,163.78743 378.7154,210.38803 82.6646,46.60056 99.9681,57.90776 111.7895,66.73126 11.8214,8.8234 18.1603,15.1623 22.6145,21.3302 4.4542,6.1678 7.024,12.1641 8.4801,18.2461 1.456,6.0821 1.7987,12.2497 0.7706,19.1881 -1.0281,6.9385 -3.4266,14.648 -6.9388,22.1006 -3.5122,7.4525 -8.1379,14.648 -14.0486,21.5866 -5.9107,6.9386 -13.1062,13.6201 -23.5571,20.9014 -10.4508,7.2814 -24.1565,15.1622 -104.4237,59.1078 -80.2673,43.9457 -227.0903,123.9531 -373.9159,203.9619 0,0 -329.97212,-329.9721 -329.97212,-329.9721 z"
       id="path907"
       inkscape:original-d="m 973.66488,1099.4475 c 0,0 330.48612,-333.56989 330.48612,-333.56989 0,0 296.0507,163.78778 444.0746,245.68019 17.3052,11.3087 34.6087,22.6159 51.9115,33.9223 6.3402,6.3402 12.6791,12.6791 19.0171,19.0171 2.5709,5.9975 5.1407,11.9938 7.7096,17.9892 0.3437,6.1688 0.6863,12.3364 1.028,18.5031 -2.3976,7.7107 -4.7961,15.4202 -7.1957,23.1289 -4.6249,7.1967 -9.2505,14.3923 -13.8773,21.5869 -7.1948,6.6828 -14.3903,13.3644 -21.587,20.045 -13.7053,7.8822 -27.411,15.763 -41.118,23.6429 -146.8275,80.0114 -440.4768,240.0264 -440.4768,240.0264 0,0 -329.97212,-329.9721 -329.97212,-329.9721 z"
       inkscape:path-effect="#path-effect909" />
    <path
       style="fill:none;stroke:#000000;stroke-width:1px;stroke-linecap:butt;stroke-linejoin:miter;stroke-opacity:1"
       d="M 91.408103,213.93957 C 266.77862,391.36198 620.22125,745.40424 973.66488,1099.4475 c 0,0 330.48612,-333.56989 330.48612,-333.56989 C 914.23932,554.69085 524.32883,343.50473 302.59939,224.70624 80.869942,105.90775 27.324862,79.498639 -6.1113205,63.628521 -39.547503,47.758403 -52.873203,42.428123 -61.595726,39.399347 c -8.722523,-3.028776 -12.841375,-3.755632 -16.252588,-3.719077 -3.411213,0.03655 -6.114102,0.836897 169.256417,178.2593 z"
       id="path915"
       inkscape:original-d="M -86.666007,37.317716 C 266.77862,391.36198 973.66488,1099.4475 973.66488,1099.4475 c 0,0 330.48612,-333.56989 330.48612,-333.56989 0,0 -779.82236,-422.37253 -1169.73505,-633.56029 C 80.86974,105.90816 27.32466,79.499049 -26.22248,53.088412 -39.54771,47.75892 -52.87341,42.428641 -66.20037,37.097256 c -4.11802,-0.725886 -8.236872,-1.452742 -12.356806,-2.180613 -2.701998,0.801374 -5.404887,1.601716 -8.108831,2.401073 z"
       inkscape:path-effect="#path-effect917" />
    <path
       style="fill:none;stroke:#000000;stroke-width:1px;stroke-linecap:butt;stroke-linejoin:miter;stroke-opacity:1"
       d="m -83.710649,2168.1306 c 0,0 1057.375529,-1068.6831 1057.375529,-1068.6831 0,0 329.97212,329.9721 329.97212,329.9721 -428.91233,234.6297 -857.82431,469.2592 -1081.57502,591.1143 -223.7507015,121.855 -242.33912,130.9351 -254.032004,136.289 -11.692884,5.3539 -16.489894,6.9815 -19.959206,8.0951 -3.469311,1.1137 -5.610851,1.7133 -10.686284,2.1631 -5.075433,0.4498 -13.085689,0.7497 -21.095135,1.0495 z"
       id="path919"
       inkscape:original-d="m -83.710649,2168.1306 c 0,0 1057.375529,-1068.6831 1057.375529,-1068.6831 0,0 329.97212,329.9721 329.97212,329.9721 0,0 -857.82366,469.2604 -1286.737,703.8891 -18.58814,9.0814 -37.17654,18.1615 -55.76631,27.2407 -4.7962,1.6286 -9.5932,3.2562 -14.39131,4.8828 -2.1406,0.6006 -4.28212,1.2003 -6.42469,1.7989 -8.0086,0.3008 -24.028339,0.8995 -24.028339,0.8995 z"
       inkscape:path-effect="#path-effect921" />
    <path
       style="opacity:1;fill:#48ff48;fill-opacity:1;stroke:none;stroke-width:4.1118"
       d="M 686.57733,602.29934 C 161.8807,76.505746 98.446895,12.155433 101.66568,8.9366507 110.28394,0.31839254 326.73744,114.59228 1287.7238,635.10107 l 181.6492,98.38847 -163.159,163.12086 -163.1591,163.1208 z"
       id="path923"
       transform="translate(-169.41602,33.462902)" />
    <path
       style="opacity:1;fill:#ffd400;fill-opacity:1;stroke:none;stroke-width:4.1118"
       d="m 1311.6858,1228.3484 -163.2746,-163.313 161.2868,-163.0063 c 88.7077,-89.65347 163.136,-163.00631 165.3962,-163.00631 8.0397,0 434.2043,237.80182 472.3198,263.55661 43.6611,29.502 54.5947,54.5086 38.1168,87.1787 -16.6857,33.0823 -5.9967,26.4111 -296.1685,184.8419 l -214.4018,117.0613 z"
       id="path925"
       transform="translate(-169.41602,33.462902)" />
    <path
       id="path927"
       style="opacity:1;fill:#ff3333;fill-opacity:1;stroke:none;stroke-width:4.1118"
       sodipodi:type="inkscape:offset"
       inkscape:radius="0"
       inkscape:original="M 1142.5957 1071.6309 L 781.17773 1436.7773 C 582.39859 1637.6075 345.72104 1876.3988 255.22656 1967.4238 C 164.73207 2058.4488 93.644302 2132.9238 97.253906 2132.9238 C 111.83137 2132.9238 142.80905 2118.2509 245.77539 2062.5762 C 440.21409 1957.4419 1459.6169 1400.2132 1462.6797 1397.3887 C 1464.3246 1395.8718 1392.9787 1321.9554 1304.1328 1233.1309 L 1142.5957 1071.6309 z "
       d="m 1142.5957,1071.6309 -361.41797,365.1464 c -198.77914,200.8302 -435.45669,439.6215 -525.95117,530.6465 -90.49449,91.025 -161.582258,165.5 -157.972654,165.5 14.577464,0 45.555144,-14.6729 148.521484,-70.3476 194.4387,-105.1343 1213.84151,-662.363 1216.90431,-665.1875 1.6449,-1.5169 -69.701,-75.4333 -158.5469,-164.2578 z"
       transform="translate(-169.41602,33.462902)" />
    <path
       style="opacity:1;fill:#3bccff;fill-opacity:1;stroke:none;stroke-width:4.1118"
       d="M 61.357538,2127.0914 C 44.247628,2119.6412 24.230836,2094.4511 15.451473,2069.321 8.6332618,2049.8045 8.2235269,1992.9071 8.2235269,1065.6203 V 82.608943 L 20.601635,58.405479 C 34.123056,31.966451 61.968832,7.1220582 78.080471,7.1220582 c 6.90742,0 23.771189,14.6904578 60.181319,52.4254738 27.82165,28.834011 240.31568,243.007488 472.20893,475.941068 231.89329,232.93358 445.47148,447.85915 474.61818,477.6124 l 52.9941,54.0969 -527.52795,532.8629 c -290.14038,293.0745 -529.556277,532.7904 -532.035328,532.7019 -2.47905,-0.088 -10.202034,-2.6406 -17.162184,-5.6713 z"
       id="path929"
       transform="translate(-169.41602,33.462902)" />
  </g>
</svg>
