<?xml version="1.0" encoding="UTF-8" standalone="no"?>
<svg
   xmlns:dc="http://purl.org/dc/elements/1.1/"
   xmlns:cc="http://creativecommons.org/ns#"
   xmlns:rdf="http://www.w3.org/1999/02/22-rdf-syntax-ns#"
   xmlns:svg="http://www.w3.org/2000/svg"
   xmlns="http://www.w3.org/2000/svg"
   xmlns:sodipodi="http://sodipodi.sourceforge.net/DTD/sodipodi-0.dtd"
   xmlns:inkscape="http://www.inkscape.org/namespaces/inkscape"
   version="1.1"
   id="svg2"
   width="1121.9316"
   height="1228"
   viewBox="0 0 1121.9316 1228"
   sodipodi:docname="windows-logo.svg"
   inkscape:version="1.0.1 (3bc2e813f5, 2020-09-07)">
  <metadata
     id="metadata8">
    <rdf:RDF>
      <cc:Work
         rdf:about="">
        <dc:format>image/svg+xml</dc:format>
        <dc:type
           rdf:resource="http://purl.org/dc/dcmitype/StillImage" />
        <dc:title></dc:title>
      </cc:Work>
    </rdf:RDF>
  </metadata>
  <defs
     id="defs6" />
  <sodipodi:namedview
     pagecolor="#ffffff"
     bordercolor="#666666"
     borderopacity="1"
     objecttolerance="10"
     gridtolerance="10"
     guidetolerance="10"
     inkscape:pageopacity="0"
     inkscape:pageshadow="2"
     inkscape:window-width="1920"
     inkscape:window-height="1017"
     id="namedview4"
     showgrid="false"
     inkscape:zoom="0.35355339"
     inkscape:cx="481.42148"
     inkscape:cy="763.97848"
     inkscape:window-x="-8"
     inkscape:window-y="-8"
     inkscape:window-maximized="1"
     inkscape:current-layer="g10"
     fit-margin-top="0"
     fit-margin-left="0"
     fit-margin-right="0"
     fit-margin-bottom="0" />
  <g
     inkscape:groupmode="layer"
     inkscape:label="Image"
     id="g10"
     transform="translate(-250.13482,-291.55876)">
    <path
       style="fill:#808080;stroke:none"
       d="m 717.06647,879.55876 655.00003,-7 v -581 c -54.85,7.08301 -109.75,21.7482 -164,32.6003 l -325.00003,65 c -40.988,8.1997 -82.01,16.2027 -123,24.3997 l -31,6.2 c -3.074,0.614 -8.913,0.688 -10.972,3.389 -4.363,5.723 -1.028,24.289 -1.028,31.411 v 88 337 m -466,5 411,-5 v -446 c -34.178,2.72 -69.359,13.473 -103,20.2 l -204,40.8 c -25.3224,5.064 -50.6801,9.937 -76,15 -5.9876,1.197 -23.18594,1.622 -26.97222,6.589 -3.6967,4.849 -1.02778,19.445 -1.02778,25.411 v 71 272 m 0,44 v 367.99994 l 269,53.6 142,28.4 V 933.55876 l -411,-5 m 466,5 v 455.99994 c 59.185,7.64 118.464,23.29 177,35 111.30803,22.26 222.69503,44.13 334.00003,66.4 47.64,9.53 95.83,22.38 144,28.6 V 940.55876 l -424.00003,-4.004 z"
       id="path30" />
  </g>
</svg>
